<?xml version="1.0" encoding="utf-8"?>
<!-- Generator: Adobe Illustrator 28.0.0, SVG Export Plug-In . SVG Version: 6.00 Build 0)  -->
<svg version="1.0" id="logo" xmlns="http://www.w3.org/2000/svg" xmlns:xlink="http://www.w3.org/1999/xlink" x="0px" y="0px"
	 viewBox="0 0 1000 1000" style="enable-background:new 0 0 1000 1000;" xml:space="preserve">
<style type="text/css">
	.st0{display:none;}
	.st1{display:inline;fill:none;stroke:#000000;stroke-width:22;stroke-linecap:round;stroke-linejoin:round;stroke-miterlimit:10;}
</style>
<g id="simples" class="st0">
	<path class="st1" d="M801.4,87.3c-73.8,54.1-61.5,110.7-17.2,211.5c40.3,91.7,35.8,214-189.4,334.5S459.5,694.8,196.4,958"/>
	<path class="st1" d="M333.1,730.7C463.6,577,481.7,309.5,480.4,226.2c-0.2-13.3,8.8-24.9,21.8-28l74.8-17.9
		c6.4-1.5,12.1-5.3,16.1-10.5l76-100.9c4.1-5.4,10-9.2,16.6-10.7L759.8,42"/>
	<path class="st1" d="M625,349.4c0,0,0,143-175.8,301.3"/>
</g>
<g id="bonita">
	<path d="M188.6,950.2c61.2-61.2,103.6-105.3,134.7-137.6c93.5-97.2,93.5-97.2,216-162.2c14.8-7.8,31.5-16.7,50.4-26.8
		c99.6-53.3,163.3-111.4,189.3-172.6c19.9-46.8,18.3-95.1-4.8-147.7C751,250.7,740,222.6,740.6,187c0.7-37.9,9.8-84.6,59.7-121.3
		c-49.6,69.1-52.2,123.7-6.1,228.8c25.3,57.6,27,113.2,4.9,165.2c-13.4,31.5-35.8,62.3-66.5,91.5C699,583,654.4,613.9,600,643
		c-18.9,10.1-35.7,19-50.5,26.9c-62.2,33-106.1,60.5-133.2,81.4C391.3,770.6,184.3,954.5,188.6,950.2z"/>
	<path d="M336.9,741.4"/>
	<path d="M765.1,33.7l-81.9,13.8c-9.2,2-17.4,7.3-23.1,14.8l-76,100.9c-2.4,3.2-5.9,5.5-9.8,6.4l-74.8,17.9
		c-18.1,4.3-29.5,20.3-30.2,38.9c-15.4,392.9-132.5,515-132.5,515C501.4,551.8,491.4,226,491.4,226c-0.1-8.2,5.4-15.2,13.3-17.1
		l74.8-17.9c8.9-2.1,16.8-7.3,22.3-14.6L671.4,84c4.2-5.6,11.7-12.4,18-15.4L765.1,33.7z"/>
</g>
</svg>
